<svg xmlns="http://www.w3.org/2000/svg" xmlns:xlink="http://www.w3.org/1999/xlink" width="20.026" height="20.024" viewBox="0 0 20.026 20.024">
  <defs>
    <clipPath id="clip-path">
      <rect id="Rectangle_1662" data-name="Rectangle 1662" width="20.026" height="20.024" transform="translate(0 0)" fill="#8db230"/>
    </clipPath>
  </defs>
  <g id="Group_47308" data-name="Group 47308" transform="translate(0 0)" clip-path="url(#clip-path)">
    <path id="Path_2792" data-name="Path 2792" d="M39.242.044Q36.954.8,34.668,1.568a.6.6,0,0,0-.46.643q0,7.793,0,15.585a.6.6,0,0,0,.47.656c1.068.356,2.137.708,3.2,1.067.485.163.966.336,1.45.5h.313a.683.683,0,0,0,.433-.651q-.005-9.367,0-18.733a.589.589,0,0,0-.832-.6m-.348,18.574-1.712-.568c-.543-.181-1.084-.368-1.63-.54a.212.212,0,0,1-.174-.247q.006-3.949,0-7.9,0-3.295,0-6.589A.236.236,0,0,1,35.57,2.5c1.046-.34,2.088-.69,3.131-1.037.061-.02.122-.037.193-.059Z" transform="translate(-27.167 0)" fill="#8db230"/>
    <path id="Path_2793" data-name="Path 2793" d="M78.97,39.864q-.727-.739-1.464-1.467a.59.59,0,1,0-.827.832c.158.16.321.316.524.514h-.247c-.606,0-1.212,0-1.819,0a.588.588,0,1,0,0,1.172c.567,0,1.134,0,1.7,0h.368c-.214.209-.386.374-.554.542a.572.572,0,0,0-.175.569.583.583,0,0,0,1,.261q.679-.662,1.341-1.341c.138-.142.252-.307.377-.462v-.313a2.5,2.5,0,0,0-.226-.31" transform="translate(-59.169 -30.322)" fill="#8db230"/>
    <path id="Path_2794" data-name="Path 2794" d="M69.489,16.207h1.8c.054,0,.107.007.211.015-.2.192-.368.346-.529.508a.589.589,0,1,0,.83.828q.743-.736,1.479-1.479a.6.6,0,0,0-.007-.926q-.73-.735-1.465-1.465a.59.59,0,1,0-.831.828c.16.16.327.311.491.467l-.035.051H69.48a.6.6,0,0,0-.678.591c0,.354.271.582.687.582" transform="translate(-54.642 -10.697)" fill="#8db230"/>
    <path id="Path_2795" data-name="Path 2795" d="M71.8,63.119a.591.591,0,1,0-.832.828c.158.158.321.312.482.467l-.026.043h-.189c-.606,0-1.212,0-1.817,0a.6.6,0,0,0-.485.208.548.548,0,0,0-.09.619.566.566,0,0,0,.544.346c.677,0,1.354,0,2.031,0l.036.052c-.169.16-.342.314-.505.479a.588.588,0,1,0,.83.828q.75-.742,1.493-1.492a.591.591,0,0,0-.006-.912q-.729-.735-1.465-1.465" transform="translate(-54.628 -49.949)" fill="#8db230"/>
    <path id="Path_2796" data-name="Path 2796" d="M14.843,20.122a.586.586,0,1,0,.583.583.592.592,0,0,0-.583-.583" transform="translate(-11.321 -15.981)" fill="#8db230"/>
    <path id="Path_2797" data-name="Path 2797" d="M.6,30.576a.586.586,0,1,0-.009,1.172A.586.586,0,0,0,.6,30.576" transform="translate(0 -24.283)" fill="#8db230"/>
    <path id="Path_2798" data-name="Path 2798" d="M22.409,38.4a.586.586,0,1,0-.552-.614.593.593,0,0,0,.552.614" transform="translate(-17.358 -29.567)" fill="#8db230"/>
    <path id="Path_2799" data-name="Path 2799" d="M7.235,45.783a.586.586,0,1,0,.59.577.592.592,0,0,0-.59-.577" transform="translate(-5.284 -36.361)" fill="#8db230"/>
    <path id="Path_2800" data-name="Path 2800" d="M22.449,54.337a.586.586,0,1,0,.579.588.593.593,0,0,0-.579-.588" transform="translate(-17.358 -43.154)" fill="#8db230"/>
    <path id="Path_2801" data-name="Path 2801" d="M.583,60.99A.586.586,0,1,0,.6,62.162.586.586,0,0,0,.583,60.99" transform="translate(0 -48.438)" fill="#8db230"/>
    <path id="Path_2802" data-name="Path 2802" d="M14.843,71.445a.586.586,0,1,0,.583.584.592.592,0,0,0-.583-.584" transform="translate(-11.321 -56.741)" fill="#8db230"/>
    <path id="Path_2803" data-name="Path 2803" d="M46.2,20.122a.586.586,0,1,0,.588.579.592.592,0,0,0-.588-.579" transform="translate(-36.226 -15.981)" fill="#8db230"/>
    <path id="Path_2804" data-name="Path 2804" d="M46.173,46.954a.586.586,0,1,0-.56-.607.593.593,0,0,0,.56.607" transform="translate(-36.226 -36.36)" fill="#8db230"/>
    <path id="Path_2805" data-name="Path 2805" d="M46.22,71.444a.586.586,0,1,0,.565.6.593.593,0,0,0-.565-.6" transform="translate(-36.226 -56.74)" fill="#8db230"/>
  </g>
</svg>
