<svg id="Group_47275" data-name="Group 47275" xmlns="http://www.w3.org/2000/svg" xmlns:xlink="http://www.w3.org/1999/xlink" width="24" height="24" viewBox="0 0 24 24">
  <defs>
    <clipPath id="clip-path">
      <rect id="Rectangle_1663" data-name="Rectangle 1663" width="24" height="24" fill="#8db230"/>
    </clipPath>
  </defs>
  <g id="Group_47274" data-name="Group 47274" clip-path="url(#clip-path)">
    <path id="Path_2790" data-name="Path 2790" d="M12.477,24h-.938c-.107-.018-.213-.038-.321-.052-.541-.07-1.09-.1-1.621-.215a11.837,11.837,0,0,1-7.489-4.99A11.518,11.518,0,0,1,.1,13.313c-.03-.286-.065-.571-.1-.857v-.939c.018-.115.039-.229.053-.344.053-.449.078-.9.161-1.347a11.483,11.483,0,0,1,2.8-5.758A11.707,11.707,0,0,1,14.177.2a11.3,11.3,0,0,1,6.982,4.056,11.669,11.669,0,0,1,2.574,10.188,11.6,11.6,0,0,1-4.459,7.077,11.581,11.581,0,0,1-5.94,2.382c-.286.031-.571.066-.857.1M9.435,19.13c.073-.063.121-.1.167-.144q1.358-1.26,2.714-2.521Q14.16,14.746,16,13.023q1.884-1.761,3.77-3.522a1.621,1.621,0,1,0-2.159-2.417c-.946.865-1.882,1.741-2.819,2.615q-2.494,2.328-4.985,4.66c-.067.063-.137.122-.215.192l-.3-.32L6.267,10.992a1.582,1.582,0,0,0-1.474-.541,1.541,1.541,0,0,0-1.288,1.09A1.57,1.57,0,0,0,3.9,13.2q2.311,2.478,4.625,4.953l.91.973" transform="translate(0 0)" fill="#8db230"/>
  </g>
</svg>
